<svg width="232" height="232" viewBox="0 0 232 232" fill="none" xmlns="http://www.w3.org/2000/svg">
<g opacity="0.2">
<path d="M147.879 214.92C126.908 221.734 104.318 221.734 83.3468 214.92C62.3756 208.106 44.0999 194.828 31.139 176.989C18.1781 159.149 11.1974 137.665 11.1974 115.615C11.1974 93.5643 18.1781 72.08 31.139 54.2408C44.0999 36.4017 62.3756 23.1236 83.3467 16.3097C104.318 9.49573 126.908 9.49573 147.879 16.3097C168.85 23.1236 187.126 36.4017 200.087 54.2408C213.048 72.08 220.028 93.5643 220.028 115.615" stroke="#16C0CB" stroke-width="4"/>
<path d="M132.794 34.785C149.863 38.4132 165.346 47.352 177.022 60.3204C188.699 73.2888 195.971 89.6209 197.795 106.976C199.619 124.331 195.902 141.818 187.177 156.931C178.451 172.044 165.165 184.006 149.223 191.104C133.281 198.202 115.502 200.071 98.4323 196.442C81.3629 192.814 65.8803 183.875 54.2035 170.907C42.5267 157.939 35.2552 141.606 33.4311 124.251C31.607 106.896 35.324 89.4092 44.0494 74.2964" stroke="#16C0CB" stroke-width="4"/>
<path d="M74.658 161.1C65.0525 152.451 58.4316 140.983 55.7443 128.34C53.0569 115.697 54.441 102.528 59.6983 90.7198C64.9556 78.9118 73.816 69.0713 85.0098 62.6085C96.2036 56.1458 109.156 53.3927 122.011 54.7438C134.865 56.0948 146.962 61.4807 156.568 70.1296C166.173 78.7784 172.794 90.2461 175.481 102.889C178.169 115.532 176.785 128.701 171.527 140.509C166.27 152.317 157.41 162.158 146.216 168.621" stroke="#16C0CB" stroke-width="4"/>
</g>
</svg>
