<svg width="750" height="750" viewBox="0 0 750 750" fill="none" xmlns="http://www.w3.org/2000/svg">
<g opacity="0.2">
<path d="M481.045 701.367C412.122 723.762 337.878 723.762 268.956 701.368C200.033 678.973 139.968 635.334 97.3717 576.705C54.775 518.075 31.8325 447.466 31.8325 374.996C31.8325 302.526 54.775 231.916 97.3717 173.287C139.968 114.658 200.033 71.0184 268.955 48.6239C337.878 26.2295 412.122 26.2295 481.045 48.6239C549.968 71.0184 610.032 114.658 652.629 173.287C695.225 231.916 718.168 302.526 718.168 374.996" stroke="#16C0CB" stroke-width="4"/>
<path d="M431.66 108.436C487.953 120.402 539.012 149.881 577.521 192.649C616.03 235.417 640.01 289.279 646.026 346.514C652.042 403.749 639.784 461.419 611.008 511.26C582.233 561.1 538.418 600.551 485.843 623.959C433.269 647.366 374.633 653.529 318.34 641.564C262.047 629.598 210.988 600.119 172.479 557.351C133.97 514.583 109.989 460.721 103.974 403.486C97.9581 346.251 110.216 288.581 138.992 238.74" stroke="#16C0CB" stroke-width="4"/>
<path d="M239.157 525.865C207.297 497.178 185.336 459.141 176.422 417.205C167.509 375.27 172.1 331.589 189.537 292.423C206.975 253.257 236.364 220.617 273.493 199.181C310.622 177.744 353.583 168.613 396.221 173.094C438.858 177.575 478.983 195.44 510.843 224.127C542.704 252.814 564.664 290.851 573.578 332.787C582.492 374.722 577.901 418.403 560.463 457.569C543.025 496.735 513.636 529.375 476.507 550.811" stroke="#16C0CB" stroke-width="4"/>
</g>
</svg>
