<svg width="46" height="46" viewBox="0 0 46 46" fill="none" xmlns="http://www.w3.org/2000/svg">
<g clip-path="url(#clip0_7_295)">
<path d="M45.12 22.5038C45.1191 22.0474 44.882 21.6239 44.4935 21.3843L39.9202 18.5652L44.4983 15.7157C44.8844 15.4754 45.1193 15.0531 45.12 14.5984C45.1207 14.1437 44.887 13.7206 44.5016 13.4792L23.3201 0.207773C22.892 -0.0604685 22.3482 -0.0604685 21.9201 0.207773L0.738514 13.4792C0.353203 13.7206 0.119503 14.1437 0.120118 14.5984C0.120822 15.0531 0.355752 15.4755 0.741854 15.7157L5.28859 18.5456L0.739833 21.3887C0.353994 21.6299 0.119767 22.0529 0.120206 22.5079C0.120646 22.9629 0.355664 23.3855 0.741942 23.626L5.28868 26.4559L0.739833 29.2988C0.35461 29.5397 0.12047 29.9618 0.120206 30.4161C0.119943 30.8704 0.353643 31.2928 0.738602 31.534L21.9202 44.8054C22.1343 44.9395 22.3772 45.0066 22.6201 45.0066C22.863 45.0066 23.1061 44.9395 23.3201 44.8054L44.5016 31.534C44.8878 31.292 45.1217 30.8677 45.12 30.412C45.1184 29.9563 44.8814 29.5337 44.4935 29.2945L39.9202 26.4754L44.4983 23.6259C44.8858 23.3847 45.121 22.9602 45.12 22.5038ZM3.92753 14.5929L22.6201 2.88087L41.3127 14.5929C41.1331 14.7047 23.1558 25.8938 22.6201 26.2273L3.92753 14.5929ZM41.3041 30.4259L22.6201 42.1325L3.92383 30.4182L7.78125 28.0073L21.9235 36.8095C22.1367 36.9422 22.3784 37.0086 22.6201 37.0086C22.8618 37.0086 23.1035 36.9422 23.3167 36.8095L37.42 28.0316L41.3041 30.4259ZM22.6201 34.1374L3.92972 22.5044L7.78125 20.0972L21.9235 28.8994C22.1367 29.0321 22.3784 29.0985 22.6201 29.0985C22.8618 29.0985 23.1035 29.0321 23.3167 28.8994L37.42 20.1214L41.2981 22.512C41.191 22.5787 23.1149 33.8293 22.6201 34.1374Z" fill="#60E1CB"/>
</g>
<defs>
<clipPath id="clip0_7_295">
<rect width="45" height="45" fill="white" transform="translate(0.120117 0.0065918)"/>
</clipPath>
</defs>
</svg>
