<svg width="46" height="46" viewBox="0 0 46 46" fill="none" xmlns="http://www.w3.org/2000/svg">
<g clip-path="url(#clip0_7_234)">
<mask id="path-1-inside-1_7_234" fill="white">
<path d="M31.359 29.0641C32.5157 27.411 33.1951 25.4009 33.1951 23.2349C33.1951 17.6133 28.6214 13.0396 22.9998 13.0396C17.3783 13.0396 12.8045 17.6133 12.8045 23.2349C12.8045 28.8568 17.3783 33.4302 22.9998 33.4302C25.1885 33.4302 27.2182 32.7367 28.8813 31.5584L35.5338 38.2109C35.8768 38.5539 36.3269 38.7256 36.7767 38.7256C37.2264 38.7256 37.6765 38.5539 38.0195 38.2109C38.7061 37.5243 38.7061 36.4112 38.0195 35.7249L31.359 29.0641ZM16.3201 23.2349C16.3201 19.5517 19.3167 16.5552 22.9998 16.5552C26.683 16.5552 29.6795 19.5517 29.6795 23.2349C29.6795 26.918 26.683 29.9146 22.9998 29.9146C19.3167 29.9146 16.3201 26.918 16.3201 23.2349ZM45.4998 22.2681V24.0259C45.4998 26.9338 43.1343 29.2993 40.2264 29.2993H39.341C39.1981 29.2993 39.0893 29.3532 39.0234 29.3985C38.2227 29.9479 37.1286 29.7439 36.5796 28.9429C36.0303 28.1427 36.2342 27.0481 37.0349 26.4992C37.7177 26.0312 38.5149 25.7837 39.341 25.7837H40.2264C41.1956 25.7837 41.9842 24.9951 41.9842 24.0259V22.2681C41.9842 21.2989 41.1956 20.5103 40.2264 20.5103H39.341C37.6793 20.5103 36.193 19.5102 35.5538 17.9628L35.5431 17.937C34.9008 16.39 35.2444 14.6312 36.4193 13.4563L37.0455 12.8305C37.7308 12.1449 37.7308 11.0297 37.0455 10.3445L35.8023 9.10164C35.4703 8.76965 35.0288 8.58665 34.5595 8.58665C34.0898 8.58665 33.6483 8.7693 33.3167 9.10164L32.6904 9.72752C31.5156 10.9024 29.7568 11.2464 28.2097 10.6033L28.1836 10.5927C26.6366 9.95377 25.6365 8.46752 25.6365 6.80584V5.92041C25.6365 4.95121 24.8479 4.1626 23.8787 4.1626H22.1209C21.1517 4.1626 20.3631 4.95121 20.3631 5.92041V6.80584C20.3631 8.46752 19.363 9.95377 17.8156 10.5927L17.7933 10.602C16.2425 11.246 14.484 10.9024 13.3092 9.72752L12.683 9.1013C12.3513 8.7693 11.9098 8.58665 11.4401 8.58665C10.9708 8.58665 10.5293 8.7693 10.1973 9.1013L8.95414 10.3445C8.26887 11.0297 8.26887 12.1449 8.95414 12.8305L9.58036 13.4563C10.7552 14.6312 11.0989 16.39 10.4562 17.9374L10.4455 17.9635C9.80661 19.5102 8.32037 20.5103 6.65868 20.5103H5.77325C4.80405 20.5103 4.01544 21.2989 4.01544 22.2681V24.0259C4.01544 24.9951 4.80405 25.7837 5.77325 25.7837H6.65868C8.32002 25.7837 9.80661 26.7838 10.4455 28.3311L10.4586 28.362C11.0989 29.9039 10.7552 31.6628 9.58036 32.8376L8.95414 33.4635C8.62215 33.7955 8.4395 34.237 8.4395 34.7066C8.4395 35.176 8.62215 35.6175 8.95414 35.9495L10.1973 37.1926C10.8826 37.8779 11.9977 37.8783 12.6833 37.1926L13.3092 36.5664C14.4834 35.3926 16.2408 35.0483 17.7875 35.6896L17.8102 35.6989C19.3633 36.3402 20.3631 37.8268 20.3631 39.4881V40.3735C20.3631 41.3427 21.1517 42.1313 22.1209 42.1313H23.8787C24.8479 42.1313 25.6365 41.3427 25.6365 40.3735V39.4881C25.6365 38.6621 25.8841 37.8645 26.3524 37.182C26.9013 36.3814 27.9955 36.1774 28.7961 36.7268C29.5968 37.2757 29.8007 38.3699 29.2514 39.1705C29.2061 39.2365 29.1522 39.3453 29.1522 39.4881V40.3735C29.1522 43.2815 26.7867 45.647 23.8787 45.647H22.1209C19.213 45.647 16.8475 43.2815 16.8475 40.3735V39.4881C16.8475 39.2553 16.7009 39.0442 16.4736 38.9505L16.4417 38.9371C16.2134 38.8423 15.9596 38.8876 15.7952 39.0524L15.169 39.6786C13.1132 41.7345 9.76747 41.7345 7.71131 39.6786L6.46814 38.4355C5.47216 37.4395 4.92387 36.1153 4.92387 34.7066C4.92387 33.298 5.47216 31.9738 6.46848 30.9778L7.09436 30.3516C7.25881 30.1871 7.30413 29.9334 7.20972 29.7055L7.1953 29.6711C7.1026 29.4459 6.89146 29.2993 6.65868 29.2993H5.77325C2.86531 29.2993 0.499817 26.9338 0.499817 24.0259V22.2681C0.499817 19.3601 2.86531 16.9946 5.77325 16.9946H6.65868C6.89146 16.9946 7.1026 16.848 7.19633 16.6211L7.20937 16.5892C7.30447 16.3609 7.25916 16.1071 7.09436 15.9423L6.46848 15.3165C4.41232 13.2603 4.41232 9.91463 6.46848 7.85847L7.71131 6.61564C8.70763 5.61966 10.0318 5.07103 11.4401 5.07103C12.8488 5.07103 14.173 5.61966 15.1693 6.61564L15.7952 7.24152C15.96 7.40631 16.2137 7.45163 16.4417 7.35687L16.4733 7.34348C16.7009 7.24976 16.8475 7.03861 16.8475 6.80584V5.92041C16.8475 3.01247 19.2133 0.646973 22.1209 0.646973H23.8787C26.7867 0.646973 29.1522 3.01247 29.1522 5.92041V6.80584C29.1522 7.03861 29.2988 7.24976 29.5257 7.34348L29.5614 7.35825C29.7863 7.45163 30.04 7.40631 30.2044 7.24152L30.8307 6.61564C31.8266 5.61932 33.1508 5.07103 34.5595 5.07103C35.9678 5.07103 37.2923 5.61932 38.2883 6.61564L39.5312 7.85847C41.5873 9.91463 41.5873 13.2603 39.5312 15.3161L38.9053 15.9423C38.7405 16.1068 38.6952 16.3605 38.7899 16.5888L38.803 16.6204C38.897 16.8477 39.1082 16.9946 39.341 16.9946H40.2264C43.1343 16.9946 45.4998 19.3601 45.4998 22.2681Z"/>
</mask>
<path d="M31.359 29.0641C32.5157 27.411 33.1951 25.4009 33.1951 23.2349C33.1951 17.6133 28.6214 13.0396 22.9998 13.0396C17.3783 13.0396 12.8045 17.6133 12.8045 23.2349C12.8045 28.8568 17.3783 33.4302 22.9998 33.4302C25.1885 33.4302 27.2182 32.7367 28.8813 31.5584L35.5338 38.2109C35.8768 38.5539 36.3269 38.7256 36.7767 38.7256C37.2264 38.7256 37.6765 38.5539 38.0195 38.2109C38.7061 37.5243 38.7061 36.4112 38.0195 35.7249L31.359 29.0641ZM16.3201 23.2349C16.3201 19.5517 19.3167 16.5552 22.9998 16.5552C26.683 16.5552 29.6795 19.5517 29.6795 23.2349C29.6795 26.918 26.683 29.9146 22.9998 29.9146C19.3167 29.9146 16.3201 26.918 16.3201 23.2349ZM45.4998 22.2681V24.0259C45.4998 26.9338 43.1343 29.2993 40.2264 29.2993H39.341C39.1981 29.2993 39.0893 29.3532 39.0234 29.3985C38.2227 29.9479 37.1286 29.7439 36.5796 28.9429C36.0303 28.1427 36.2342 27.0481 37.0349 26.4992C37.7177 26.0312 38.5149 25.7837 39.341 25.7837H40.2264C41.1956 25.7837 41.9842 24.9951 41.9842 24.0259V22.2681C41.9842 21.2989 41.1956 20.5103 40.2264 20.5103H39.341C37.6793 20.5103 36.193 19.5102 35.5538 17.9628L35.5431 17.937C34.9008 16.39 35.2444 14.6312 36.4193 13.4563L37.0455 12.8305C37.7308 12.1449 37.7308 11.0297 37.0455 10.3445L35.8023 9.10164C35.4703 8.76965 35.0288 8.58665 34.5595 8.58665C34.0898 8.58665 33.6483 8.7693 33.3167 9.10164L32.6904 9.72752C31.5156 10.9024 29.7568 11.2464 28.2097 10.6033L28.1836 10.5927C26.6366 9.95377 25.6365 8.46752 25.6365 6.80584V5.92041C25.6365 4.95121 24.8479 4.1626 23.8787 4.1626H22.1209C21.1517 4.1626 20.3631 4.95121 20.3631 5.92041V6.80584C20.3631 8.46752 19.363 9.95377 17.8156 10.5927L17.7933 10.602C16.2425 11.246 14.484 10.9024 13.3092 9.72752L12.683 9.1013C12.3513 8.7693 11.9098 8.58665 11.4401 8.58665C10.9708 8.58665 10.5293 8.7693 10.1973 9.1013L8.95414 10.3445C8.26887 11.0297 8.26887 12.1449 8.95414 12.8305L9.58036 13.4563C10.7552 14.6312 11.0989 16.39 10.4562 17.9374L10.4455 17.9635C9.80661 19.5102 8.32037 20.5103 6.65868 20.5103H5.77325C4.80405 20.5103 4.01544 21.2989 4.01544 22.2681V24.0259C4.01544 24.9951 4.80405 25.7837 5.77325 25.7837H6.65868C8.32002 25.7837 9.80661 26.7838 10.4455 28.3311L10.4586 28.362C11.0989 29.9039 10.7552 31.6628 9.58036 32.8376L8.95414 33.4635C8.62215 33.7955 8.4395 34.237 8.4395 34.7066C8.4395 35.176 8.62215 35.6175 8.95414 35.9495L10.1973 37.1926C10.8826 37.8779 11.9977 37.8783 12.6833 37.1926L13.3092 36.5664C14.4834 35.3926 16.2408 35.0483 17.7875 35.6896L17.8102 35.6989C19.3633 36.3402 20.3631 37.8268 20.3631 39.4881V40.3735C20.3631 41.3427 21.1517 42.1313 22.1209 42.1313H23.8787C24.8479 42.1313 25.6365 41.3427 25.6365 40.3735V39.4881C25.6365 38.6621 25.8841 37.8645 26.3524 37.182C26.9013 36.3814 27.9955 36.1774 28.7961 36.7268C29.5968 37.2757 29.8007 38.3699 29.2514 39.1705C29.2061 39.2365 29.1522 39.3453 29.1522 39.4881V40.3735C29.1522 43.2815 26.7867 45.647 23.8787 45.647H22.1209C19.213 45.647 16.8475 43.2815 16.8475 40.3735V39.4881C16.8475 39.2553 16.7009 39.0442 16.4736 38.9505L16.4417 38.9371C16.2134 38.8423 15.9596 38.8876 15.7952 39.0524L15.169 39.6786C13.1132 41.7345 9.76747 41.7345 7.71131 39.6786L6.46814 38.4355C5.47216 37.4395 4.92387 36.1153 4.92387 34.7066C4.92387 33.298 5.47216 31.9738 6.46848 30.9778L7.09436 30.3516C7.25881 30.1871 7.30413 29.9334 7.20972 29.7055L7.1953 29.6711C7.1026 29.4459 6.89146 29.2993 6.65868 29.2993H5.77325C2.86531 29.2993 0.499817 26.9338 0.499817 24.0259V22.2681C0.499817 19.3601 2.86531 16.9946 5.77325 16.9946H6.65868C6.89146 16.9946 7.1026 16.848 7.19633 16.6211L7.20937 16.5892C7.30447 16.3609 7.25916 16.1071 7.09436 15.9423L6.46848 15.3165C4.41232 13.2603 4.41232 9.91463 6.46848 7.85847L7.71131 6.61564C8.70763 5.61966 10.0318 5.07103 11.4401 5.07103C12.8488 5.07103 14.173 5.61966 15.1693 6.61564L15.7952 7.24152C15.96 7.40631 16.2137 7.45163 16.4417 7.35687L16.4733 7.34348C16.7009 7.24976 16.8475 7.03861 16.8475 6.80584V5.92041C16.8475 3.01247 19.2133 0.646973 22.1209 0.646973H23.8787C26.7867 0.646973 29.1522 3.01247 29.1522 5.92041V6.80584C29.1522 7.03861 29.2988 7.24976 29.5257 7.34348L29.5614 7.35825C29.7863 7.45163 30.04 7.40631 30.2044 7.24152L30.8307 6.61564C31.8266 5.61932 33.1508 5.07103 34.5595 5.07103C35.9678 5.07103 37.2923 5.61932 38.2883 6.61564L39.5312 7.85847C41.5873 9.91463 41.5873 13.2603 39.5312 15.3161L38.9053 15.9423C38.7405 16.1068 38.6952 16.3605 38.7899 16.5888L38.803 16.6204C38.897 16.8477 39.1082 16.9946 39.341 16.9946H40.2264C43.1343 16.9946 45.4998 19.3601 45.4998 22.2681Z" fill="#60E1CB" stroke="#FCFCFE" stroke-width="1.2" mask="url(#path-1-inside-1_7_234)"/>
</g>
<defs>
<clipPath id="clip0_7_234">
<rect width="45" height="45" fill="white" transform="translate(0.499817 0.646973)"/>
</clipPath>
</defs>
</svg>
