<svg width="32" height="33" viewBox="0 0 32 33" fill="none" xmlns="http://www.w3.org/2000/svg">
<path d="M20.5083 15.7318L11.415 24.8208C11.0617 25.1997 10.8694 25.7009 10.8785 26.2188C10.8877 26.7367 11.0976 27.2309 11.464 27.5971C11.8305 27.9634 12.3248 28.1732 12.843 28.1823C13.3611 28.1914 13.8625 27.9992 14.2417 27.6461L23.575 18.3172L24.1083 17.7841L24.7483 17.1444C25.1229 16.7696 25.3333 16.2615 25.3333 15.7318C25.3333 15.202 25.1229 14.6939 24.7483 14.3191L14.2417 3.81746C13.8625 3.46435 13.3611 3.27212 12.8429 3.28125C12.3248 3.29039 11.8305 3.50019 11.464 3.86645C11.0976 4.23271 10.8877 4.72683 10.8785 5.24472C10.8694 5.76261 11.0617 6.26383 11.415 6.64279L20.5083 15.7318Z" fill="#274864"/>
</svg>
