<svg width="51" height="50" viewBox="0 0 51 50" fill="none" xmlns="http://www.w3.org/2000/svg">
<g clip-path="url(#clip0_7_252)">
<path d="M26.7366 23.7094C26.3547 23.3352 25.7366 23.3352 25.3547 23.7094C24.9739 24.0826 24.9739 24.6884 25.3547 25.0626C25.7366 25.4358 26.3547 25.4358 26.7366 25.0626C27.1174 24.6884 27.1174 24.0826 26.7366 23.7094Z" fill="#60E1CB"/>
<path d="M39.165 11.5282C37.2568 9.65828 34.1677 9.65819 32.2594 11.5282C30.3562 13.3934 30.3561 16.4291 32.2597 18.2958C34.1636 20.1604 37.2613 20.1612 39.165 18.2956C41.073 16.4257 41.0734 13.3984 39.165 11.5282ZM37.7839 16.942C36.642 18.0612 34.7833 18.0612 33.6408 16.9422C32.4987 15.8223 32.4986 14.0007 33.6406 12.8817C34.7854 11.7597 36.6389 11.7595 37.7839 12.8817C38.9288 14.0035 38.929 15.82 37.7839 16.942Z" fill="#60E1CB"/>
<path d="M50.2142 0.700245C50.0224 0.51238 49.7607 0.410552 49.4886 0.420601C49.2678 0.428353 44.0105 0.635454 37.761 2.80016C32.7532 4.53296 28.5791 7.01386 25.3545 10.174C24.632 10.8821 23.9289 11.633 23.2561 12.413C20.0678 10.5738 17.513 11.1505 15.8978 11.9976C12.179 13.948 9.87714 19.2438 9.87714 23.0318C9.87743 23.4188 10.1154 23.7678 10.4803 23.9159C10.6011 23.965 10.728 23.9888 10.8538 23.9888C11.108 23.9888 11.3577 23.8915 11.5445 23.7085C13.5057 21.7865 15.9248 21.9067 16.715 22.0085L17.057 22.3437C16.384 23.9132 15.8418 25.4739 15.4441 26.9919C15.3006 27.5412 15.349 28.1225 15.5624 28.6542C14.6221 29.0788 13.715 29.7024 12.9252 30.4764C10.4114 32.94 9.90096 38.9438 9.88046 39.1982C9.858 39.4774 9.96132 39.7522 10.1634 39.9502C10.3473 40.1303 10.596 40.2305 10.8538 40.2305C10.8794 40.2305 10.9051 40.2296 10.9307 40.2276C11.1903 40.2076 17.3169 39.7073 19.8306 37.2438C20.6202 36.4701 21.2563 35.5812 21.6896 34.66C22.264 34.8813 22.8552 34.9086 23.3869 34.7751C24.9351 34.3855 26.5275 33.8543 28.1292 33.1946L28.4712 33.5298C28.575 34.3043 28.6977 36.675 26.7366 38.5968C26.4574 38.8705 26.3738 39.2821 26.525 39.6397C26.676 39.9973 27.0321 40.2304 27.4271 40.2304C31.2923 40.2304 36.6961 37.9746 38.6864 34.3302C39.5507 32.7475 40.1392 30.2437 38.2624 27.1191C39.058 26.4601 39.8243 25.7711 40.5472 25.0627C43.7718 21.9026 46.3032 17.8119 48.0714 12.9047C50.2804 6.77987 50.4916 1.62761 50.4995 1.41132C50.5093 1.14574 50.4059 0.888206 50.2142 0.700245ZM12.0605 20.9733C12.6672 18.0962 14.4292 14.939 16.8198 13.6851C18.4174 12.8473 20.1635 12.9295 22.0202 13.9254C20.4384 15.9641 19.0633 18.1605 17.9172 20.4798C17.9026 20.471 17.7268 20.2545 17.4003 20.1823C17.266 20.1525 14.6821 19.6079 12.0605 20.9733ZM18.4496 35.8903C17.1068 37.2062 13.9569 37.9003 11.966 38.1836C12.2553 36.2324 12.9636 33.1456 14.3062 31.8298C15.0582 31.0929 15.9301 30.5342 16.8064 30.2195L20.0927 33.4401C19.7716 34.299 19.2016 35.1534 18.4496 35.8903ZM22.9017 32.9209C22.6191 32.9919 22.2918 32.8877 22.0484 32.6496C20.785 31.4115 20.2908 30.9272 20.1357 30.7753C19.8513 30.4966 19.154 29.8132 17.6136 28.3036C17.3701 28.0644 17.2638 27.7437 17.336 27.4672C17.6488 26.2734 18.0579 25.0486 18.5553 23.812L26.631 31.7262C25.369 32.2138 24.1194 32.6146 22.9017 32.9209ZM36.9646 33.427C35.6851 35.7697 32.4636 37.4966 29.5279 38.091C30.4639 36.3648 30.6703 34.1674 30.3283 32.8349C30.2489 32.5254 30.0428 32.3698 30.0313 32.3515C32.3978 31.2282 34.6389 29.8806 36.7194 28.3305C37.7357 30.1502 37.8194 31.8617 36.9646 33.427ZM39.1663 23.7092C38.2864 24.5715 37.3388 25.4046 36.3499 26.1853C33.9728 28.061 31.3564 29.6499 28.565 30.9147L19.3834 21.9169C20.674 19.1812 22.2953 16.6171 24.2091 14.2878C25.0064 13.318 25.8564 12.3893 26.736 11.5274C29.629 8.69211 33.3628 6.43563 37.8366 4.81136L46.0194 12.8305C44.3622 17.2147 42.0597 20.8738 39.1663 23.7092ZM46.7221 10.812L39.8963 4.12277C43.6152 2.9908 46.8504 2.56693 48.4652 2.41457C48.3097 3.9974 47.8771 7.16795 46.7221 10.812Z" fill="#60E1CB"/>
<path d="M23.9738 39.9499C23.5923 39.5762 22.9739 39.5763 22.5927 39.9501L19.831 42.6575C19.4497 43.0313 19.4498 43.6373 19.8312 44.0109C20.2127 44.3846 20.8311 44.3846 21.2123 44.0107L23.974 41.3033C24.3553 40.9295 24.3552 40.3235 23.9738 39.9499Z" fill="#60E1CB"/>
<path d="M10.1634 26.4159C9.78217 26.0421 9.16391 26.0421 8.78237 26.4157L6.01968 29.1222C5.63823 29.4958 5.63813 30.1018 6.01938 30.4756C6.40054 30.8492 7.0188 30.8496 7.40044 30.4758L10.1631 27.7693C10.5446 27.3957 10.5447 26.7897 10.1634 26.4159Z" fill="#60E1CB"/>
<path d="M17.0684 41.3042C16.6873 40.9305 16.0688 40.9305 15.6874 41.3041L9.07217 47.7861C8.69072 48.1598 8.69072 48.7658 9.07207 49.1395C9.45322 49.5132 10.0717 49.5134 10.4531 49.1396L17.0683 42.6577C17.4498 42.2839 17.4498 41.6779 17.0684 41.3042Z" fill="#60E1CB"/>
<path d="M9.25594 41.3042C8.87469 40.9305 8.25624 40.9305 7.87489 41.3041L1.25967 47.7861C0.878223 48.1598 0.878223 48.7658 1.25957 49.1395C1.64072 49.5132 2.25918 49.5134 2.64062 49.1396L9.25584 42.6577C9.63729 42.2839 9.63729 41.6779 9.25594 41.3042Z" fill="#60E1CB"/>
<path d="M8.78185 33.1826C8.4006 32.8089 7.78214 32.8089 7.40079 33.1826L0.786547 39.6656C0.4052 40.0394 0.4052 40.6453 0.786645 41.0191C1.16799 41.3928 1.78635 41.3928 2.1677 41.019L8.78194 34.5361C9.16329 34.1623 9.16329 33.5564 8.78185 33.1826Z" fill="#60E1CB"/>
<path d="M30.8793 19.6485C30.4979 19.2747 29.8797 19.2747 29.4982 19.6485L28.1173 21.0017C27.736 21.3754 27.736 21.9814 28.1173 22.3552C28.4988 22.7289 29.117 22.7289 29.4985 22.3552L30.8793 21.002C31.2606 20.6283 31.2606 20.0223 30.8793 19.6485Z" fill="#60E1CB"/>
</g>
<defs>
<clipPath id="clip0_7_252">
<rect width="50" height="49" fill="white" transform="translate(0.5 0.419922)"/>
</clipPath>
</defs>
</svg>
