<svg width="15" height="26" viewBox="0 0 15 26" fill="white" xmlns="http://www.w3.org/2000/svg">
<path d="M9.84257 12.6255L0.74924 21.7188C0.39596 22.098 0.203632 22.5994 0.212774 23.1176C0.221916 23.6357 0.431814 24.1301 0.798249 24.4965C1.16468 24.8629 1.65904 25.0728 2.17718 25.082C2.69532 25.0911 3.19677 24.8988 3.57591 24.5455L12.9092 15.2122L13.4426 14.6788L14.0826 14.0388C14.4571 13.6638 14.6675 13.1555 14.6675 12.6255C14.6675 12.0955 14.4571 11.5872 14.0826 11.2122L3.57591 0.705498C3.19677 0.352218 2.69531 0.15989 2.17718 0.169032C1.65904 0.178174 1.16468 0.388072 0.798247 0.754507C0.431812 1.12094 0.221914 1.6153 0.212772 2.13344C0.203631 2.65157 0.395959 3.15303 0.749239 3.53217L9.84257 12.6255Z" fill="white"/>
</svg>
