<svg width="45" height="46" viewBox="0 0 45 46" fill="none" xmlns="http://www.w3.org/2000/svg">
<g clip-path="url(#clip0_7_363)">
<path d="M39.3028 6.27213H38.7689C39.7866 4.61516 39.4108 2.39061 37.7774 1.17871C36.0174 -0.126969 33.5164 0.293315 32.2881 2.12879L29.5156 6.27222H5.69797C3.74024 6.27222 2.14752 7.86494 2.14752 9.82267V32.5221C2.14752 34.4798 3.74024 36.0725 5.69797 36.0725H19.489L18.447 40.4491H16.198C14.7322 40.4491 13.5398 41.6415 13.5398 43.1073V43.6623H10.7673C10.2819 43.6623 9.88842 44.0558 9.88842 44.5412C9.88842 45.0265 10.2819 45.42 10.7673 45.42H34.2336C34.719 45.42 35.1125 45.0265 35.1125 44.5412C35.1125 44.0558 34.719 43.6623 34.2336 43.6623H31.4611V43.1073C31.4611 41.6415 30.2686 40.4491 28.8029 40.4491H26.5539L25.5119 36.0725H39.3029C41.2606 36.0725 42.8534 34.4798 42.8534 32.5221V27.5274V9.82258C42.8534 7.86486 41.2606 6.27213 39.3028 6.27213ZM26.7099 21.7229C25.3358 22.6849 22.7614 21.3773 20.303 22.6892C19.7032 19.5731 20.0813 16.6424 23.2036 15.9955C23.6071 15.9114 24.0415 15.8734 24.4114 15.8808C25.4681 16.6648 26.537 17.4578 27.5908 18.2398C28.0522 19.5817 27.879 20.9046 26.7099 21.7229ZM27.5957 12.3023L30.0835 14.1481L28.1703 16.4808C27.3826 15.8964 26.7055 15.394 25.9179 14.8096C26.0814 14.5652 27.4462 12.5256 27.5957 12.3023ZM33.7491 3.10637C34.4148 2.11138 35.7724 1.87989 36.73 2.59047C37.688 3.30114 37.8596 4.66746 37.1005 5.59302C35.7536 7.23504 32.5515 11.1392 31.1995 12.7875L28.5742 10.8397L33.7491 3.10637ZM29.7032 43.1073V43.6623H15.2975V43.1073C15.2975 42.6109 15.7015 42.2069 16.198 42.2069H28.8028C29.2993 42.2069 29.7032 42.6109 29.7032 43.1073ZM24.7469 40.4491H20.2539L21.2959 36.0725H23.7049L24.7469 40.4491ZM41.0956 32.5221C41.0956 33.5106 40.2914 34.3148 39.3029 34.3148C37.9078 34.3148 7.2667 34.3148 5.69806 34.3148C4.70957 34.3148 3.90539 33.5106 3.90539 32.5221V28.4062H6.4169C6.90231 28.4062 7.29579 28.0127 7.29579 27.5274C7.29579 27.042 6.90231 26.6485 6.4169 26.6485H3.90521V9.82258C3.90521 8.8341 4.7094 8.02991 5.69788 8.02991H28.3394C27.4974 9.28822 25.041 12.9592 24.2629 14.1218C22.5406 14.1374 20.821 14.7374 19.6953 16.0515C18.1635 17.8396 17.8944 20.6493 18.8955 24.4023C19.0666 25.0441 19.8673 25.274 20.3519 24.8112C22.6244 22.6397 25.4548 25.0083 27.9894 22.9568C29.5366 21.7044 29.9028 19.7133 29.3193 17.8515C30.108 16.89 36.5846 8.9937 37.3751 8.02991H39.3027C40.2912 8.02991 41.0954 8.8341 41.0954 9.82258V26.6484H13.4478C12.9624 26.6484 12.5689 27.0419 12.5689 27.5273C12.5689 28.0126 12.9624 28.4062 13.4478 28.4062H41.0956V32.5221Z" fill="#60E1CB"/>
<path d="M9.76304 26.6655C9.33993 26.752 9.0564 27.1177 9.0564 27.5278C9.0564 28.0776 9.55904 28.4986 10.1067 28.3891C10.5933 28.2904 10.8898 27.8214 10.7966 27.3555C10.6988 26.8748 10.2325 26.571 9.76304 26.6655Z" fill="#60E1CB"/>
</g>
<defs>
<clipPath id="clip0_7_363">
<rect width="45" height="45" fill="white" transform="translate(0 0.420166)"/>
</clipPath>
</defs>
</svg>
