<svg width="46" height="46" viewBox="0 0 46 46" fill="none" xmlns="http://www.w3.org/2000/svg">
<g clip-path="url(#clip0_7_344)">
<path d="M45.1072 7.49147C44.0625 4.83973 42.9375 3.95581 38.4375 3.95581C35.7053 3.95581 33.6161 6.04506 33.6161 8.77723C33.6161 10.2236 34.4197 11.5897 35.2233 13.0361C35.4643 13.5986 35.8661 14.1611 36.1072 14.7236L36.4286 15.3665C37.1518 16.8129 37.6339 17.8576 37.6339 20.0272C37.6339 20.9111 37.4732 21.8755 37.0714 23.2415V23.3218L34.4197 31.2771L27.5329 11.7648C27.7659 11.7347 27.999 11.7034 28.2322 11.6701C29.5179 11.6701 30.5625 10.5451 30.5625 9.25931C30.5625 7.89322 29.5178 6.84855 28.1517 6.84855C28.0714 6.84855 28.0714 6.84855 27.991 6.84855C24.8571 7.33072 21.7232 7.33072 18.5892 6.84855C18.5089 6.84855 18.5089 6.84855 18.4285 6.84855C17.0624 6.84855 16.0177 7.89322 16.0177 9.25931C16.0178 10.5451 17.0625 11.6701 18.3483 11.6701C18.6175 11.7104 18.8895 11.7476 19.1625 11.7831L22.4464 20.1076L18.4286 31.9201L11.1958 11.6838C11.2228 11.6791 11.2498 11.6749 11.2767 11.6701C12.5625 11.5897 13.6071 10.5451 13.6071 9.25931C13.6071 7.89322 12.5624 6.84855 11.1963 6.84855C11.116 6.84855 11.116 6.84855 11.0356 6.84855C8.46416 7.33072 5.89274 7.33072 3.32133 6.84855C3.241 6.84855 3.241 6.84855 3.16058 6.84855C1.79467 6.84864 0.75 7.89331 0.75 9.25931C0.75 10.5226 1.75863 11.5524 3.01336 11.6643L12.8839 38.6701C13.4464 40.1968 14.6517 41.3218 16.2589 41.7236C16.6607 41.804 16.9822 41.8844 17.3839 41.8844C19.3928 41.8844 21.3214 40.5183 21.9642 38.5897L26.5446 24.929L31.366 38.5897C31.7677 39.7147 32.5713 40.5183 33.4552 40.8397C34.2588 41.1611 35.1427 41.0808 35.9463 40.679C36.991 40.2772 37.7946 39.3932 38.116 38.3486L44.0625 20.5093C45.4286 17.054 45.75 14.0004 45.75 12.0718V10.7861C45.75 9.66114 45.5892 8.53614 45.1072 7.49147ZM18.4286 10.0629C17.9464 10.0629 17.625 9.74147 17.625 9.25931C17.625 8.85756 17.9464 8.45572 18.3483 8.45572C21.6429 9.01822 24.8572 9.01822 28.2322 8.45572C28.6339 8.45572 28.9554 8.85747 28.9554 9.25931C28.9554 9.74147 28.634 10.0629 28.1518 10.0629C28.0715 10.0629 28.0715 10.0629 27.9911 10.0629C27.513 10.1365 27.0349 10.1974 26.5568 10.2485C26.4768 10.232 26.3923 10.2236 26.3036 10.2236C24.1339 10.4647 21.9643 10.4647 19.7947 10.2236C19.7932 10.2236 19.7916 10.2238 19.7901 10.2238C19.3898 10.1779 18.9896 10.1245 18.5893 10.0629C18.5089 10.0629 18.5089 10.0629 18.4286 10.0629ZM2.35717 9.25931C2.35717 8.85756 2.67858 8.45572 3.08042 8.45572C5.81259 9.01822 8.54467 9.01822 11.2768 8.45572C11.6786 8.45572 12.0001 8.85747 12.0001 9.25931C12.0001 9.74147 11.6787 10.0629 11.1965 10.0629C11.1162 10.0629 11.1162 10.0629 11.0358 10.0629C10.7033 10.1252 10.3708 10.1792 10.0383 10.2254C10.0226 10.2247 10.007 10.2236 9.99108 10.2236C9.85687 10.2451 9.72223 10.2649 9.58731 10.2835C7.71173 10.5031 5.83623 10.465 3.96064 10.1716C3.90826 10.162 3.85588 10.1533 3.80358 10.1433C3.79655 10.1433 3.78952 10.1439 3.78249 10.144C3.62877 10.1186 3.47514 10.0918 3.32142 10.063C3.24108 10.063 3.24108 10.063 3.16066 10.063C2.67858 10.0629 2.35717 9.74147 2.35717 9.25931ZM44.0625 12.1522C44.0625 13.9201 43.8214 16.813 42.5358 20.0272L36.509 37.8665C36.2679 38.5093 35.7858 38.9915 35.1429 39.2326C34.7412 39.3933 34.3393 39.4736 33.9376 39.3129C33.4554 39.1521 32.9733 38.6701 32.7323 38.0271L27.1073 22.2771C27.0269 21.9557 26.7055 21.7146 26.384 21.7146C26.0626 21.7146 25.7412 21.9557 25.6608 22.2771L20.4375 38.0272C19.9553 39.554 18.2678 40.5183 16.6608 40.1165C15.6161 39.8754 14.8125 39.1522 14.4108 38.1076L4.8552 11.9302C5.62969 12.0189 6.40409 12.0719 7.17858 12.0719C7.98322 12.0719 8.78786 12.015 9.59241 11.9199L17.7857 34.6522C17.866 34.9736 18.1874 35.2147 18.5089 35.2147C18.8303 35.2147 19.1517 34.9736 19.2322 34.6522L24.0536 20.3486C24.1339 20.1879 24.1339 19.9469 24.0536 19.7861L21.0262 11.9786C21.774 12.0374 22.5203 12.0719 23.25 12.0719C24.1183 12.0719 25.0105 12.0238 25.913 11.9426L33.7767 34.0094C33.8571 34.3308 34.1785 34.5719 34.5 34.5719C34.8215 34.5719 35.1428 34.3308 35.2233 34.0094L38.5983 23.9647C38.6786 23.8844 38.6786 23.8844 38.6786 23.804C39.1608 22.2772 39.3214 21.0718 39.3214 20.1076C39.3214 17.5361 38.6786 16.2504 37.9553 14.7236L37.6339 14.0808C37.3125 13.5183 36.9911 12.8755 36.6697 12.313C35.9464 11.1076 35.3036 9.90223 35.3036 8.85756C35.3036 6.76831 36.9911 5.64331 38.5178 5.64331C42.6964 5.64331 43.0178 6.44689 43.5803 8.13439C43.9017 8.93798 44.0625 9.82189 44.0625 10.7861V12.1522Z" fill="#60E1CB"/>
</g>
<defs>
<clipPath id="clip0_7_344">
<rect width="45" height="45" fill="white" transform="translate(0.75 0.420166)"/>
</clipPath>
</defs>
</svg>
